ffmpeg started on 2016-11-26 at 15:52:38
Report written to "Output/NVENCh264/results/ffmpeg/crowd_run_2160p50ll6000k.log"
Command line:
Tools/ffmpeg/ffmpeg -benchmark -y -i Input/y4m/crowd_run_2160p50.y4m -c:v h264_nvenc -preset ll -b:v 6000k -an Output/NVENCh264/encoded/crowd_run_2160p50ll6000k.mkv
ffmpeg version N-82227-gdb23fde Copyright (c) 2000-2016 the FFmpeg developers
  built with gcc 5.4.0 (Ubuntu 5.4.0-6ubuntu1~16.04.2) 20160609
  configuration: --prefix=/home/jaroslav/ffmpeg_build --pkg-config-flags=--static --extra-cflags=-I/home/jaroslav/ffmpeg_build/include --extra-ldflags=-L/home/jaroslav/ffmpeg_build/lib --bindir=/home/jaroslav/bin --enable-gpl --enable-libass --enable-libfdk-aac --enable-libfreetype --enable-libmp3lame --enable-libopus --enable-libtheora --enable-libvorbis --enable-libvpx --enable-libx264 --enable-libx265 --enable-nvenc --enable-libmfx --enable-libxvid --enable-libgsm --enable-libopencore-amrnb --enable-version3 --enable-nonfree
  libavutil      55. 35.100 / 55. 35.100
  libavcodec     57. 66.101 / 57. 66.101
  libavformat    57. 57.100 / 57. 57.100
  libavdevice    57.  2.100 / 57.  2.100
  libavfilter     6. 66.100 /  6. 66.100
  libswscale      4.  3.100 /  4.  3.100
  libswresample   2.  4.100 /  2.  4.100
  libpostproc    54.  2.100 / 54.  2.100
Input #0, yuv4mpegpipe, from 'Input/y4m/crowd_run_2160p50.y4m':
  Duration: 00:00:10.00, start: 0.000000, bitrate: 4976642 kb/s
    Stream #0:0: Video: rawvideo (I420 / 0x30323449), yuv420p(progressive), 3840x2160, SAR 1:1 DAR 16:9, 50 fps, 50 tbr, 50 tbn, 50 tbc
[h264_nvenc @ 0x3f721c0] The variable bitrate rate-control requires the 'qmin' and/or 'qmax' option set.
Output #0, matroska, to 'Output/NVENCh264/encoded/crowd_run_2160p50ll6000k.mkv':
  Metadata:
    encoder         : Lavf57.57.100
    Stream #0:0: Video: h264 (h264_nvenc) (Main) (H264 / 0x34363248), yuv420p, 3840x2160 [SAR 1:1 DAR 16:9], q=-1--1, 6000 kb/s, 50 fps, 1k tbn, 50 tbc
    Metadata:
      encoder         : Lavc57.66.101 h264_nvenc
    Side data:
      cpb: bitrate max/min/avg: 0/0/6000000 buffer size: 12000000 vbv_delay: -1
Stream mapping:
  Stream #0:0 -> #0:0 (rawvideo (native) -> h264 (h264_nvenc))
Press [q] to stop, [?] for help
frame=   14 fps=0.0 q=0.0 size=       0kB time=00:00:00.00 bitrate=N/A speed=   0x    frame=   30 fps= 22 q=0.0 size=       0kB time=00:00:00.00 bitrate=N/A speed=   0x    frame=   38 fps= 20 q=49.0 size=       1kB time=00:00:00.14 bitrate=  42.4kbits/s speed=0.0726x    frame=   56 fps= 23 q=49.0 size=       1kB time=00:00:00.50 bitrate=  11.9kbits/s speed=0.204x    frame=   74 fps= 25 q=47.0 size=       1kB time=00:00:00.86 bitrate=   6.9kbits/s speed=0.289x    frame=   92 fps= 26 q=49.0 size=       1kB time=00:00:01.22 bitrate=   4.9kbits/s speed=0.349x    frame=  108 fps= 22 q=47.0 size=       1kB time=00:00:01.54 bitrate=   3.9kbits/s speed=0.318x    frame=  109 fps= 13 q=47.0 size=       1kB time=00:00:01.56 bitrate=   3.8kbits/s speed=0.188x    frame=  127 fps= 14 q=48.0 size=       1kB time=00:00:01.92 bitrate=   3.1kbits/s speed=0.218x    frame=  145 fps= 16 q=48.0 size=       1kB time=00:00:02.28 bitrate=   2.6kbits/s speed=0.244x    frame=  163 fps= 16 q=48.0 size=       1kB time=00:00:02.64 bitrate=   2.3kbits/s speed=0.267x    frame=  169 fps= 16 q=48.0 size=       1kB time=00:00:02.76 bitrate=   2.2kbits/s speed=0.265x    frame=  175 fps= 16 q=48.0 size=       1kB time=00:00:02.88 bitrate=   2.1kbits/s speed=0.263x    frame=  180 fps= 16 q=48.0 size=       1kB time=00:00:02.98 bitrate=   2.0kbits/s speed=0.26x    frame=  197 fps= 16 q=48.0 size=       1kB time=00:00:03.32 bitrate=   1.8kbits/s speed=0.278x    frame=  214 fps= 17 q=48.0 size=       1kB time=00:00:03.66 bitrate=   1.6kbits/s speed=0.294x    frame=  232 fps= 18 q=49.0 size=       1kB time=00:00:04.02 bitrate=   1.5kbits/s speed=0.31x    frame=  250 fps= 18 q=47.0 size=       1kB time=00:00:04.38 bitrate=   1.4kbits/s speed=0.324x    frame=  268 fps= 19 q=47.0 size=       1kB time=00:00:04.74 bitrate=   1.3kbits/s speed=0.338x    frame=  280 fps= 19 q=47.0 size=       1kB time=00:00:04.98 bitrate=   1.2kbits/s speed=0.338x    frame=  294 fps= 19 q=47.0 size=    3560kB time=00:00:05.26 bitrate=5543.2kbits/s speed=0.345x    frame=  298 fps= 19 q=47.0 size=    3560kB time=00:00:05.34 bitrate=5460.2kbits/s speed=0.334x    frame=  315 fps= 19 q=47.0 size=    3560kB time=00:00:05.68 bitrate=5133.4kbits/s speed=0.344x    frame=  323 fps= 19 q=47.0 size=    3560kB time=00:00:05.84 bitrate=4992.8kbits/s speed=0.342x    frame=  335 fps= 19 q=46.0 size=    3560kB time=00:00:06.08 bitrate=4795.7kbits/s speed=0.346x    frame=  338 fps= 19 q=46.0 size=    3560kB time=00:00:06.14 bitrate=4748.9kbits/s speed=0.337x    frame=  353 fps= 19 q=48.0 size=    3560kB time=00:00:06.44 bitrate=4527.7kbits/s speed=0.341x    frame=  357 fps= 18 q=48.0 size=    3560kB time=00:00:06.52 bitrate=4472.1kbits/s speed=0.335x    frame=  363 fps= 18 q=48.0 size=    3560kB time=00:00:06.64 bitrate=4391.3kbits/s speed=0.332x    frame=  369 fps= 18 q=47.0 size=    3560kB time=00:00:06.76 bitrate=4313.4kbits/s speed=0.329x    frame=  374 fps= 18 q=47.0 size=    3560kB time=00:00:06.86 bitrate=4250.5kbits/s speed=0.326x    frame=  387 fps= 18 q=47.0 size=    3560kB time=00:00:07.12 bitrate=4095.3kbits/s speed=0.327x    frame=  393 fps= 18 q=46.0 size=    3560kB time=00:00:07.24 bitrate=4027.5kbits/s speed=0.325x    frame=  400 fps= 18 q=47.0 size=    3560kB time=00:00:07.38 bitrate=3951.1kbits/s speed=0.324x    frame=  402 fps= 17 q=48.0 size=    3560kB time=00:00:07.42 bitrate=3929.8kbits/s speed=0.315x    frame=  407 fps= 17 q=47.0 size=    3560kB time=00:00:07.52 bitrate=3877.5kbits/s speed=0.308x    frame=  414 fps= 17 q=48.0 size=    3560kB time=00:00:07.66 bitrate=3806.7kbits/s speed=0.307x    frame=  422 fps= 17 q=49.0 size=    3560kB time=00:00:07.82 bitrate=3728.8kbits/s speed=0.306x    frame=  423 fps= 16 q=49.0 size=    3560kB time=00:00:07.84 bitrate=3719.3kbits/s speed=0.301x    frame=  424 fps= 16 q=49.0 size=    3560kB time=00:00:07.86 bitrate=3709.8kbits/s speed=0.293x    frame=  426 fps= 15 q=49.0 size=    3560kB time=00:00:07.90 bitrate=3691.0kbits/s speed=0.283x    frame=  429 fps= 15 q=49.0 size=    3560kB time=00:00:07.96 bitrate=3663.2kbits/s speed=0.277x    frame=  431 fps= 14 q=49.0 size=    3560kB time=00:00:08.00 bitrate=3644.9kbits/s speed=0.268x    frame=  433 fps= 14 q=49.0 size=    3560kB time=00:00:08.04 bitrate=3626.8kbits/s speed=0.264x    frame=  435 fps= 14 q=49.0 size=    3560kB time=00:00:08.08 bitrate=3608.8kbits/s speed=0.26x    frame=  438 fps= 14 q=49.0 size=    3560kB time=00:00:08.14 bitrate=3582.2kbits/s speed=0.253x    frame=  442 fps= 14 q=49.0 size=    3560kB time=00:00:08.22 bitrate=3547.4kbits/s speed=0.251x    frame=  445 fps= 13 q=49.0 size=    3560kB time=00:00:08.28 bitrate=3521.7kbits/s speed=0.247x    frame=  453 fps= 13 q=49.0 size=    3560kB time=00:00:08.44 bitrate=3454.9kbits/s speed=0.245x    frame=  456 fps= 13 q=49.0 size=    3560kB time=00:00:08.50 bitrate=3430.5kbits/s speed=0.242x    frame=  461 fps= 13 q=49.0 size=    3560kB time=00:00:08.60 bitrate=3390.6kbits/s speed=0.237x    frame=  463 fps= 13 q=49.0 size=    3560kB time=00:00:08.64 bitrate=3374.9kbits/s speed=0.234x    frame=  466 fps= 12 q=49.0 size=    3560kB time=00:00:08.70 bitrate=3351.7kbits/s speed=0.231x    frame=  468 fps= 12 q=49.0 size=    3560kB time=00:00:08.74 bitrate=3336.3kbits/s speed=0.227x    frame=  470 fps= 12 q=49.0 size=    3560kB time=00:00:08.78 bitrate=3321.1kbits/s speed=0.224x    frame=  472 fps= 12 q=49.0 size=    3560kB time=00:00:08.82 bitrate=3306.1kbits/s speed=0.222x    frame=  474 fps= 12 q=49.0 size=    3560kB time=00:00:08.86 bitrate=3291.1kbits/s speed=0.217x    frame=  476 fps= 11 q=49.0 size=    3560kB time=00:00:08.90 bitrate=3276.4kbits/s speed=0.213x    frame=  477 fps= 11 q=49.0 size=    3560kB time=00:00:08.92 bitrate=3269.0kbits/s speed=0.21x    frame=  479 fps= 11 q=49.0 size=    3560kB time=00:00:08.96 bitrate=3254.4kbits/s speed=0.208x    frame=  480 fps= 11 q=49.0 size=    3560kB time=00:00:08.98 bitrate=3247.2kbits/s speed=0.205x    frame=  483 fps= 11 q=49.0 size=    3560kB time=00:00:09.04 bitrate=3225.6kbits/s speed=0.203x    frame=  484 fps= 11 q=49.0 size=    3560kB time=00:00:09.06 bitrate=3218.5kbits/s speed=0.199x    frame=  485 fps= 10 q=49.0 size=    3560kB time=00:00:09.08 bitrate=3211.4kbits/s speed=0.197x    frame=  486 fps= 10 q=49.0 size=    3560kB time=00:00:09.10 bitrate=3204.4kbits/s speed=0.195x    frame=  488 fps= 10 q=49.0 size=    3560kB time=00:00:09.14 bitrate=3190.3kbits/s speed=0.193x    frame=  489 fps= 10 q=49.0 size=    3560kB time=00:00:09.16 bitrate=3183.4kbits/s speed=0.191x    frame=  491 fps= 10 q=49.0 size=    3560kB time=00:00:09.20 bitrate=3169.5kbits/s speed=0.189x    frame=  492 fps= 10 q=49.0 size=    3560kB time=00:00:09.22 bitrate=3162.7kbits/s speed=0.187x    frame=  494 fps=9.9 q=49.0 size=    3560kB time=00:00:09.26 bitrate=3149.0kbits/s speed=0.185x    frame=  500 fps=9.9 q=49.0 Lsize=    7269kB time=00:00:09.98 bitrate=5965.7kbits/s speed=0.198x    
video:7264kB audio:0kB subtitle:0kB other streams:0kB global headers:0kB muxing overhead: 0.059138%
bench: utime=1.388s
bench: maxrss=1408432kB
